<svg width="64" height="64" viewBox="0 0 64 64" fill="none" xmlns="http://www.w3.org/2000/svg">
<mask id="mask0_445_1904" style="mask-type:luminance" maskUnits="userSpaceOnUse" x="5" y="5" width="54" height="54">
<path d="M52 8H12C9.79086 8 8 9.79086 8 12V52C8 54.2091 9.79086 56 12 56H52C54.2091 56 56 54.2091 56 52V12C56 9.79086 54.2091 8 52 8Z" fill="#555555" stroke="white" stroke-width="5.33333" stroke-linejoin="round"/>
<path d="M8 37.3333H32M32 26.6667H56M8 33.3333V41.3333M56 22.6667V30.6667M32 56V8M28 8H36M28 56H36" stroke="white" stroke-width="5.33333" stroke-linecap="round" stroke-linejoin="round"/>
</mask>
<g mask="url(#mask0_445_1904)">
<path d="M0 0H64V64H0V0Z" fill="#444444"/>
</g>
<path opacity="0.5" d="M45.3333 46.6667H18.6667C18.4306 46.6667 18.1988 46.6041 17.9948 46.4853C17.7909 46.3664 17.6222 46.1955 17.5059 45.9901C17.3896 45.7847 17.33 45.5521 17.333 45.316C17.3361 45.08 17.4018 44.849 17.5233 44.6467L22.6033 36.18C24.8083 35.7667 27.9367 35.945 31.9983 38C37.3733 40.7217 41.1233 40.1517 43.2483 39.275L46.4717 44.6467C46.593 44.8486 46.6587 45.0792 46.662 45.3148C46.6652 45.5504 46.606 45.7827 46.4904 45.9879C46.3747 46.1932 46.2067 46.3642 46.0034 46.4834C45.8002 46.6026 45.569 46.6659 45.3333 46.6667Z" fill="white"/>
<path d="M47.615 43.9617L37.3333 26.82V17.3333H38.6667C39.0203 17.3333 39.3594 17.1929 39.6095 16.9428C39.8595 16.6928 40 16.3536 40 16C40 15.6464 39.8595 15.3072 39.6095 15.0572C39.3594 14.8071 39.0203 14.6667 38.6667 14.6667H25.3333C24.9797 14.6667 24.6406 14.8071 24.3905 15.0572C24.1405 15.3072 24 15.6464 24 16C24 16.3536 24.1405 16.6928 24.3905 16.9428C24.6406 17.1929 24.9797 17.3333 25.3333 17.3333H26.6667V26.82L16.385 43.9617C16.1425 44.366 16.0115 44.8273 16.0054 45.2987C15.9993 45.7701 16.1182 46.2347 16.3501 46.6451C16.582 47.0556 16.9186 47.3972 17.3255 47.6352C17.7325 47.8732 18.1952 47.9991 18.6667 48H45.3333C45.8052 48 46.2686 47.8747 46.6762 47.6371C47.0839 47.3994 47.4212 47.0579 47.6536 46.6473C47.8861 46.2367 48.0055 45.7718 47.9996 45.2999C47.9937 44.8281 47.8627 44.3663 47.62 43.9617H47.615ZM29.1433 27.875C29.268 27.6683 29.3337 27.4314 29.3333 27.19V17.3333H34.6667V27.19C34.6663 27.4314 34.732 27.6683 34.8567 27.875L41.2267 38.5C39.2267 38.895 36.3817 38.7283 32.6017 36.815C29.95 35.4733 27.4267 34.7617 25.065 34.68L29.1433 27.875ZM18.6667 45.3333L23.4233 37.4033C25.7983 37.115 28.475 37.7117 31.3933 39.19C34.56 40.7917 37.2267 41.3367 39.3933 41.3367C40.4953 41.3415 41.5923 41.19 42.6517 40.8867L45.3333 45.3333H18.6667Z" fill="white"/>
</svg>
